<svg xmlns="http://www.w3.org/2000/svg" viewBox="0 0 800 520"><defs><linearGradient id="s" y2="1"><stop stop-color="#26365b"/><stop offset="1" stop-color="#bc8e78"/></linearGradient></defs><rect width="800" height="520" rx="32" fill="url(#s)"/><circle cx="650" cy="105" r="53" fill="#ffd5a3" opacity=".8"/><path d="M0 390 130 295 260 370 380 255 510 340 650 230 800 342V520H0Z" fill="#172238" opacity=".8"/><rect x="96" y="76" width="608" height="378" rx="26" fill="#0b101b" stroke="#fff" stroke-opacity=".22"/><text x="130" y="125" fill="white" font-family="Arial" font-size="20" font-weight="800">GLOBAL ESTATE</text><text x="130" y="205" fill="white" font-family="Arial" font-size="36" font-weight="800">Find a place</text><text x="130" y="246" fill="#e9c3a9" font-family="Arial" font-size="36" font-weight="800">to call home.</text><rect x="130" y="278" width="540" height="62" rx="16" fill="white"/><text x="158" y="316" fill="#626879" font-family="Arial" font-size="15">Search city or property</text><rect x="563" y="289" width="94" height="40" rx="12" fill="#172238"/><text x="582" y="314" fill="white" font-family="Arial" font-size="13" font-weight="700">SEARCH</text><g fill="#24324e" stroke="#fff" stroke-opacity=".15"><rect x="130" y="366" width="158" height="60" rx="14"/><rect x="306" y="366" width="158" height="60" rx="14"/><rect x="482" y="366" width="188" height="60" rx="14"/></g><g fill="white" font-family="Arial" font-size="13" font-weight="700"><text x="150" y="401">Luxury Villas</text><text x="326" y="401">Apartments</text><text x="502" y="401">Commercial Spaces</text></g></svg>
