<svg xmlns="http://www.w3.org/2000/svg" viewBox="0 0 800 520"><defs><linearGradient id="g"><stop stop-color="#7c5cff"/><stop offset="1" stop-color="#26d9c7"/></linearGradient></defs><rect width="800" height="520" rx="32" fill="#0b0c14"/><rect x="38" y="38" width="724" height="444" rx="25" fill="#121420" stroke="#fff" stroke-opacity=".12"/><rect x="38" y="38" width="170" height="444" rx="25" fill="#191b2a"/><circle cx="76" cy="80" r="18" fill="url(#g)"/><text x="104" y="87" fill="white" font-family="Arial" font-size="20" font-weight="800">TalentTrack</text><g fill="#8a8fa8" font-family="Arial" font-size="14"><text x="70" y="150">Dashboard</text><text x="70" y="198">Candidates</text><text x="70" y="246">Open Roles</text><text x="70" y="294">Interviews</text></g><text x="240" y="100" fill="white" font-family="Arial" font-size="25" font-weight="700">Candidate pipeline</text><g fill="#1b1e2d"><rect x="230" y="132" width="150" height="110" rx="18"/><rect x="397" y="132" width="150" height="110" rx="18"/><rect x="564" y="132" width="160" height="110" rx="18"/><rect x="230" y="266" width="494" height="178" rx="18"/></g><g fill="white" font-family="Arial" font-size="32" font-weight="800"><text x="250" y="207">248</text><text x="417" y="207">32</text><text x="584" y="207">18</text></g><g fill="#8a8fa8" font-family="Arial" font-size="12"><text x="250" y="164">TOTAL TALENT</text><text x="417" y="164">INTERVIEWS</text><text x="584" y="164">HIRED</text></g><g fill="white" font-family="Arial" font-size="15"><text x="278" y="314">Frontend Developer</text><text x="278" y="363">Product Designer</text><text x="278" y="412">Backend Engineer</text></g><g fill="#7c5cff"><circle cx="253" cy="309" r="12"/><circle cx="253" cy="358" r="12"/><circle cx="253" cy="407" r="12"/></g></svg>
